<svg xmlns="http://www.w3.org/2000/svg" xmlns:xlink="http://www.w3.org/1999/xlink" fill="none" version="1.1" width="20" height="19.248291015625" viewBox="0 0 20 19.248291015625"><defs><linearGradient x1="0.5" y1="1.09375" x2="0.5" y2="-0.10457602888345718" id="master_svg0_1633_18536"><stop offset="0%" stop-color="#131F53" stop-opacity="1"/><stop offset="100%" stop-color="#3662EC" stop-opacity="1"/></linearGradient><linearGradient x1="0.5" y1="0" x2="0.5" y2="1" id="master_svg1_1633_19096"><stop offset="0%" stop-color="#081956" stop-opacity="1"/><stop offset="26.19044780731201%" stop-color="#FFFFFF" stop-opacity="1"/><stop offset="26.90473198890686%" stop-color="#FFFFFF" stop-opacity="1"/><stop offset="100%" stop-color="#081956" stop-opacity="1"/></linearGradient></defs><g style="mix-blend-mode:passthrough"><g style="mix-blend-mode:passthrough"><rect x="0" y="0" width="20" height="19.248291015625" rx="2" fill="url(#master_svg0_1633_18536)" fill-opacity="1"/><rect x="0.25" y="0.25" width="19.5" height="18.748291015625" rx="1.75" stroke="url(#master_svg1_1633_19096)" fill-opacity="0" fill="none" stroke-width="0.5"/></g><g style="opacity:0.800000011920929;"><path d="M15.27765361099243,15.97350234375L4.722075610992432,15.97350234375C4.3577216109924315,15.97350234375,4.062353610992432,15.68920234375,4.062353610992432,15.33850234375L4.062353610992432,3.90983034375C4.062353610992432,3.55916934375,4.3577216109924315,3.27490234375,4.722075610992432,3.27490234375L15.27765361099243,3.27490234375C15.64195361099243,3.27490234375,15.937353610992432,3.55916934375,15.937353610992432,3.90983034375L15.937353610992432,15.33850234375C15.937353610992432,15.68920234375,15.64195361099243,15.97350234375,15.27765361099243,15.97350234375ZM6.701243610992432,5.8146123437499995L6.701243610992432,8.354322343749999L9.340133610992432,8.354322343749999L9.340133610992432,5.8146123437499995L6.701243610992432,5.8146123437499995ZM6.701243610992432,9.62418234375L6.701243610992432,10.89404234375L13.298463610992432,10.89404234375L13.298463610992432,9.62418234375L6.701243610992432,9.62418234375ZM6.701243610992432,12.16389234375L6.701243610992432,13.43370234375L13.298463610992432,13.43370234375L13.298463610992432,12.16389234375L6.701243610992432,12.16389234375ZM10.659573610992432,6.44954234375L10.659573610992432,7.71940234375L13.298463610992432,7.71940234375L13.298463610992432,6.44954234375L10.659573610992432,6.44954234375Z" fill="#FFFFFF" fill-opacity="1"/></g></g></svg>