<?xml version="1.0" standalone="no"?><!DOCTYPE svg PUBLIC "-//W3C//DTD SVG 1.1//EN" "http://www.w3.org/Graphics/SVG/1.1/DTD/svg11.dtd"><svg t="1679641565742" class="icon" viewBox="0 0 1024 1024" version="1.1" xmlns="http://www.w3.org/2000/svg" p-id="1577" xmlns:xlink="http://www.w3.org/1999/xlink" width="200" height="200"><path d="M901.12 92.16H122.88c-13.9264 0-27.4432 4.096-38.5024 11.0592-5.3248 1.2288-10.24 4.096-13.9264 8.192-4.096 4.096-6.5536 9.0112-8.192 13.9264-6.9632 11.0592-11.0592 24.1664-11.0592 38.5024v696.32c0 39.3216 32.3584 71.68 71.68 71.68h778.24c39.3216 0 71.68-32.3584 71.68-71.68V163.84c0-39.3216-32.3584-71.68-71.68-71.68zM112.64 197.0176l140.9024 140.9024H112.64V197.0176z m226.5088 140.9024c-1.2288-2.048-2.4576-3.6864-4.096-5.3248L156.0576 153.6h117.9648l1.2288 1.2288 183.0912 183.0912H339.1488z m204.8 0c-1.2288-2.048-2.4576-3.6864-4.096-5.3248L360.8576 153.6h117.9648l1.2288 1.2288 183.0912 183.0912h-119.1936z m204.8 0c-1.2288-2.048-2.4576-3.6864-4.096-5.3248l-178.9952-178.9952h117.9648l1.2288 1.2288 183.0912 183.0912h-119.1936zM911.36 163.84v130.6624l-140.9024-140.9024H901.12c5.7344 0 10.24 4.5056 10.24 10.24zM901.12 870.4H122.88c-5.7344 0-10.24-4.5056-10.24-10.24V399.36h798.72V860.16c0 5.7344-4.5056 10.24-10.24 10.24z" fill="#ffffff" p-id="1578"></path><path d="M645.9392 599.2448l-204.8-139.264c-9.4208-6.5536-21.7088-6.9632-31.5392-1.6384-10.24 5.3248-16.384 15.5648-16.384 27.0336v278.528c0 11.4688 6.144 21.7088 16.384 27.0336 4.5056 2.4576 9.4208 3.6864 14.336 3.6864 6.144 0 12.288-1.6384 17.2032-5.3248l204.8-139.264c8.6016-5.7344 13.5168-15.1552 13.5168-25.3952s-4.9152-19.6608-13.5168-25.3952z m-191.2832 106.496v-162.2016l119.6032 81.1008-119.6032 81.1008z" fill="#ffffff" p-id="1579"></path></svg>