<?xml version="1.0" standalone="no"?><!DOCTYPE svg PUBLIC "-//W3C//DTD SVG 1.1//EN" "http://www.w3.org/Graphics/SVG/1.1/DTD/svg11.dtd"><svg class="icon" width="200px" height="200.00px" viewBox="0 0 1024 1024" version="1.1" xmlns="http://www.w3.org/2000/svg"><path fill="#bfbfbf" d="M928.896 686.528l-175.424-173.952 169.792-171.456 5.184-5.824a103.872 103.872 0 0 0-18.56-138.752l-89.856-88.32a101.44 101.44 0 0 0-72.128-32 105.728 105.728 0 0 0-73.216 32L510.272 270.656 338.56 95.36A96 96 0 0 0 270.336 64a92.736 92.736 0 0 0-69.888 34.944L100.928 197.696a102.912 102.912 0 0 0-36.416 84.864 80.832 80.832 0 0 0 31.36 55.744l171.264 172.8-92.736 91.712a47.488 47.488 0 0 0-11.712 19.2L76.416 886.4a46.656 46.656 0 0 0 6.4 42.24 47.232 47.232 0 0 0 38.4 19.2l274.048-81.664a46.656 46.656 0 0 0 19.776-11.904L512 756.608l175.36 174.016a90.816 90.816 0 0 0 64.832 29.376 93.248 93.248 0 0 0 65.472-29.056l106.112-105.344a102.4 102.4 0 0 0 35.712-82.304 86.656 86.656 0 0 0-30.592-56.704z m-436.608-1.28a30.208 30.208 0 0 0-4.096 2.752 33.024 33.024 0 0 0-2.88 4.288l-51.2 51.584L279.424 588.8l339.52-335.488 151.424 151.168-81.216 81.92a30.272 30.272 0 0 0-4.416 2.944 31.36 31.36 0 0 0-3.008 4.608z m228.544-532.736a44.288 44.288 0 0 1 27.072-12.416 38.4 38.4 0 0 1 26.88 13.44l91.008 89.6s30.528 28.032 12.8 52.288l-63.04 64-151.04-151.168zM137.216 289.728A22.08 22.08 0 0 1 128 275.712c-1.344-11.648 10.624-25.6 17.856-32.576l111.744-110.592c8.448-5.824 21.504-5.952 35.328 7.808l171.712 175.36-152 150.4z m10.368 585.472l74.88-229.76 11.392-11.264 155.392 155.264-16.896 17.088z m730.944-94.976l-106.048 105.216-1.536 1.6a30.336 30.336 0 0 1-18.752 8.768c-2.24 0-9.216 0-19.712-10.432L556.8 711.104l151.488-152.96 176.512 175.104a38.4 38.4 0 0 0 3.968 3.328 20.672 20.672 0 0 1 6.4 12.416 46.784 46.784 0 0 1-17.024 31.232z" /></svg>