<?xml version="1.0" standalone="no"?><!DOCTYPE svg PUBLIC "-//W3C//DTD SVG 1.1//EN" "http://www.w3.org/Graphics/SVG/1.1/DTD/svg11.dtd"><svg class="icon" width="200px" height="200.00px" viewBox="0 0 1024 1024" version="1.1" xmlns="http://www.w3.org/2000/svg"><path fill="#bfbfbf" d="M289.938286 494.153143a216.064 216.064 0 0 1-147.090286-204.361143A215.917714 215.917714 0 0 1 358.4 74.24a215.917714 215.917714 0 0 1 215.552 215.552c0 94.793143-61.659429 175.542857-146.944 204.361143 15.213714 2.998857 30.281143 7.094857 45.056 12.214857a25.380571 25.380571 0 1 1-16.384 48.128 298.057143 298.057143 0 0 0-97.28-15.872c-163.84 0-296.96 133.12-296.96 296.96 0 14.336-11.264 25.6-25.6 25.6a25.380571 25.380571 0 0 1-25.6-25.6 348.745143 348.745143 0 0 1 279.698286-341.430857zM358.4 125.44a164.571429 164.571429 0 0 0-164.352 164.352A164.571429 164.571429 0 0 0 358.4 454.144a164.571429 164.571429 0 0 0 164.352-164.352A164.571429 164.571429 0 0 0 358.4 125.44z"  /><path fill="#bfbfbf" d="M749.348571 757.321143A81.188571 81.188571 0 0 1 667.794286 675.693714c0-45.348571 36.132571-81.627429 81.554285-81.627428a81.188571 81.188571 0 0 1 81.554286 81.627428c0 44.544-37.010286 81.627429-81.554286 81.627429z m0-129.536a47.177143 47.177143 0 0 0-47.030857 47.030857c0 25.892571 21.211429 47.104 47.030857 47.104 25.892571 0 47.104-21.211429 47.104-47.104a47.250286 47.250286 0 0 0-47.104-47.030857z m11.849143 284.672h-19.309714c-27.062857 0-51.785143-18.358857-61.44-44.251429-4.388571-2.048-9.874286-4.242286-14.116571-6.363428-8.630857 3.364571-17.846857 5.12-27.062858 5.266285a62.610286 62.610286 0 0 1-46.226285-19.382857l-14.116572-13.970285a66.925714 66.925714 0 0 1-13.970285-73.435429c-2.194286-4.315429-4.388571-8.484571-6.582858-13.897143-27.062857-9.728-46.372571-34.596571-46.372571-61.586286v-20.48c0-26.989714 19.309714-51.785143 45.348571-61.513142l6.436572-13.019429s0-0.950857 1.170286-0.950857a73.142857 73.142857 0 0 1-5.412572-27.062857c0-17.188571 6.509714-34.523429 19.382857-46.372572l14.116572-14.116571a64.073143 64.073143 0 0 1 46.153143-19.382857c9.801143 0 18.505143 2.267429 27.136 5.485714 4.242286-2.194286 9.728-4.388571 12.946285-5.485714a66.194286 66.194286 0 0 1 61.44-43.081143h19.456c26.989714 0 51.785143 18.285714 61.513143 44.251428 4.315429 2.048 9.654857 4.388571 13.897143 6.509715a57.782857 57.782857 0 0 1 27.136-5.339429c17.261714 0 34.377143 6.363429 46.299429 19.309714l14.116571 14.043429c19.090286 19.309714 24.649143 48.274286 13.897143 73.216 2.194286 4.388571 4.388571 8.777143 6.582857 14.116571 25.673143 9.581714 42.861714 34.011429 43.154286 61.44v19.456c0 28.086857-18.358857 51.785143-44.324572 61.513143-2.121143 4.388571-4.388571 9.728-6.582857 14.043429a72.118857 72.118857 0 0 1 5.558857 27.062857c0 17.188571-6.582857 34.523429-19.382857 46.372571l-13.019428 12.946286a64.365714 64.365714 0 0 1-46.299429 19.382857c-9.801143 0-18.358857-2.194286-27.062857-5.266285-4.388571 2.121143-8.557714 4.315429-13.897143 6.363428a64.877714 64.877714 0 0 1-60.562286 44.178286zM674.230857 811.885714c1.901714 0 4.900571 0.950857 6.875429 1.901715l5.851428 2.925714c5.851429 2.925714 11.702857 5.851429 16.603429 7.826286a15.36 15.36 0 0 1 9.801143 10.678857 31.012571 31.012571 0 0 0 29.257143 25.380571h17.554285a31.012571 31.012571 0 0 0 29.257143-25.380571 15.36 15.36 0 0 1 9.874286-10.678857c6.875429-1.974857 14.628571-5.851429 22.381714-9.801143a15.945143 15.945143 0 0 1 14.774857 0.950857c9.728 6.875429 27.209143 5.851429 37.083429-4.900572l12.653714-12.726857a29.842286 29.842286 0 0 0 8.923429-21.430857c0-5.851429-2.121143-11.702857-4.900572-16.676571-2.925714-3.803429-2.925714-9.654857-1.024-14.555429l1.901715-2.925714c2.925714-6.875429 6.875429-13.750857 8.777142-19.602286a15.579429 15.579429 0 0 1 10.752-9.728 31.232 31.232 0 0 0 24.429715-29.257143v-18.578285a31.012571 31.012571 0 0 0-24.429715-29.257143 15.213714 15.213714 0 0 1-10.678857-9.874286c-2.925714-7.753143-5.851429-15.652571-9.801143-22.381714a15.652571 15.652571 0 0 1 0.950858-14.701715 31.012571 31.012571 0 0 0-3.949715-38.034285l-13.604571-12.726857c-9.874286-9.874286-26.331429-11.702857-37.083429-3.949715a15.798857 15.798857 0 0 1-14.774857 0.950857 98.742857 98.742857 0 0 0-22.381714-9.728 15.725714 15.725714 0 0 1-9.801143-10.752 31.085714 31.085714 0 0 0-29.257143-24.356571h-17.627428a31.012571 31.012571 0 0 0-29.257143 24.356571 15.36 15.36 0 0 1-9.801143 10.752 103.350857 103.350857 0 0 0-22.454857 9.728 15.506286 15.506286 0 0 1-14.628572-0.950857c-10.752-7.753143-27.355429-5.851429-38.107428 3.949715l-12.8 12.726857a30.208 30.208 0 0 0-3.803429 38.034285c2.925714 4.022857 2.925714 9.874286 0.950857 14.701715-1.901714 2.925714-2.925714 5.924571-4.827428 8.777143a57.929143 57.929143 0 0 0-6.802286 13.604571 15.798857 15.798857 0 0 1-10.825143 9.874286c-12.726857 2.779429-26.331429 14.628571-26.331428 29.257143v17.554285c0 14.628571 13.604571 26.331429 26.331428 29.257143a15.36 15.36 0 0 1 10.825143 9.874286c1.828571 5.851429 4.754286 11.776 7.753143 17.554286l2.925714 4.754285a15.872 15.872 0 0 1-1.024 14.774857 30.061714 30.061714 0 0 0 4.827429 38.034286l12.726857 12.726857c10.24 10.020571 26.038857 11.629714 38.107428 3.949715a19.748571 19.748571 0 0 1 7.826286-1.901715z"  /></svg>